<?xml version="1.0" encoding="utf-8"?>
<!-- Generator: Adobe Illustrator 23.0.3, SVG Export Plug-In . SVG Version: 6.00 Build 0)  -->
<svg version="1.1" id="Layer_1" xmlns="http://www.w3.org/2000/svg" xmlns:xlink="http://www.w3.org/1999/xlink" x="0px" y="0px"
	 viewBox="0 0 225 50" style="enable-background:new 0 0 225 50;" xml:space="preserve">
<style type="text/css">
	.st0{fill:#0079C1;}
	.st1{fill:#EE3124;}
	.st2{fill:#FFFFFF;}
</style>
<title>Asset 3</title>
<g>
	<g id="Layer_1-2">
		<path class="st0" d="M19.1,23.7c0,1.3-0.5,1.9-2,1.9h-1.2v-3.8h0.8h0.4C18.6,21.8,19.1,22.5,19.1,23.7 M22.1,28.5
			c0-1.9-1.5-2.6-3.4-2.6v-0.1c1.6-0.1,2.9-0.8,2.9-2.4c0-1.8-1.5-2.1-3.1-2.1c-2,0-4.3,0.1-6.3,0v0.5c0.4,0,1.4,0,1.4,0.6v7.8
			c0,0.5-1,0.6-1.4,0.6v0.5c1.9-0.1,4.2,0,6.1,0S22,30.6,22.1,28.5L22.1,28.5z M19.5,28.4c0,1.6-0.5,2.4-2.4,2.4h-1.2v-4.6h1.3
			C18.9,26.2,19.5,26.8,19.5,28.4L19.5,28.4z"/>
		<path class="st0" d="M34.8,31.3c-0.9,0-1.8,0-2.7,0v-0.5c0.4,0,1.5,0,1.5-0.6v-7.3l0,0l-4.1,8.5h-0.4l-4-8.5l0,0v7.3
			c0,0.6,1.2,0.6,1.6,0.6v0.5c-1.1,0-2.6-0.1-3.7,0v-0.5c0.4,0,1.4,0,1.4-0.6v-7.8c0-0.5-1-0.6-1.4-0.6v-0.5c1.3,0.1,2.6,0.1,3.9,0
			l3.4,7.1l3.5-7.1c1.2,0,2.5,0,3.7,0v0.5c-0.4,0-1.5,0-1.5,0.6v7.8c0,0.5,1,0.6,1.5,0.6v0.5C36.6,31.3,35.7,31.3,34.8,31.3"/>
		<path class="st0" d="M46.9,26.3c0,2-0.2,4.7-3,4.7s-3-2.7-3-4.7s0.2-4.7,3-4.7S46.9,24.3,46.9,26.3 M49.5,26.2
			c0-3.3-2-5.1-5.6-5.1s-5.7,1.8-5.7,5.1c0,3.3,2,5.2,5.7,5.2S49.5,29.6,49.5,26.2L49.5,26.2z"/>
		<path class="st1" d="M70,10.6c-8,0-14.4,6.4-14.4,14.4S62,39.4,70,39.4S84.4,33,84.4,25c0,0,0,0,0,0C84.4,17,78,10.6,70,10.6z"/>
		<path class="st2" d="M69.6,20.6l-2.5-3.3c-0.1-0.1-0.3-0.2-0.5-0.2c-0.2,0-0.3,0.1-0.4,0.2l-3,3.7V27l3-3.8
			c0.1-0.1,0.3-0.2,0.4-0.2c0.2,0,0.3,0.1,0.5,0.2l2.5,3.3c0.1,0.1,0.3,0.2,0.4,0.2c0.2,0,0.3-0.1,0.4-0.2l2.5-3.3
			c0.1-0.1,0.3-0.2,0.5-0.2c0.2,0,0.3,0.1,0.5,0.2l3,3.8v-5.9l-3-3.8c-0.1-0.1-0.3-0.2-0.4-0.2c-0.2,0-0.3,0.1-0.4,0.2l-2.5,3.3
			C70.3,20.8,69.9,20.9,69.6,20.6C69.6,20.6,69.6,20.6,69.6,20.6z M76.8,31.3H63.2V27h13.6V31.3z"/>
		<path class="st0" d="M96.1,31.4c-3.6,0-5.5-2-5.5-5.2c0-3.3,1.9-5.3,5.7-5.3c1.3,0,2.7,0.2,3.9,0.7v2.6h-0.7
			c-0.3-1.8-1-2.8-3.2-2.8c-3,0-3.5,2.6-3.5,4.8c0,2.2,0.4,4.7,3.5,4.7c1.6,0.2,3-0.9,3.2-2.5c0-0.2,0-0.3,0-0.5h0.8v2.8
			C98.9,31.1,97.5,31.4,96.1,31.4z"/>
		<path class="st0" d="M107.6,31.3c-0.6,0-1.2-0.1-1.2-0.7c-0.6,0.6-1.5,0.9-2.4,0.9c-1.5,0-2.3-0.7-2.3-2.1c0-2.4,2.9-2.2,4.7-2.4
			v-1.1c0-0.8-0.4-1.2-1.3-1.2s-1.3,0.5-1.3,1.3c0,0.4-0.3,0.5-0.7,0.5c-0.5,0-0.9,0-0.9-0.6c0-1.4,1.6-1.6,2.8-1.6
			c1.9,0,3.2,0.3,3.2,2.2v3.3c0,1,0.1,1.1,1.2,1.1v0.5C108.8,31.3,108.2,31.3,107.6,31.3z M106.4,27.5c-1.5,0.1-2.7,0.2-2.7,1.9
			c0,0.7,0.2,1.4,1.1,1.4c1.3,0,1.6-1,1.6-2V27.5z"/>
		<path class="st0" d="M115.3,31.4c-0.8,0-1.6-0.3-2.1-0.8l0,0v3.1c0,0.6,0.9,0.5,1.4,0.5v0.5c-1.5,0-3,0-4.5,0v-0.5
			c0.4,0,1.3,0,1.3-0.5v-8.3c0-0.5-0.9-0.6-1.3-0.6v-0.4c1,0,2.1,0,3.1,0v0.9l0,0c0.5-0.7,1.4-1.2,2.4-1.1c2.3,0,3.2,1.7,3.2,3.6
			C118.7,29.8,117.8,31.4,115.3,31.4z M114.9,24.7c-1.5,0-1.8,1.6-1.8,2.6c0,1.2-0.2,3.6,1.8,3.6c1.8,0,1.8-2.1,1.8-3.2
			C116.7,26.5,116.6,24.7,114.9,24.7z"/>
		<path class="st0" d="M119.9,31.3v-0.5c0.4,0,1.3,0,1.3-0.5v-5c0-0.5-0.9-0.5-1.3-0.5v-0.5c1,0,2.1,0,3.1,0v5.9
			c0,0.5,0.9,0.5,1.3,0.5v0.5C122.9,31.2,121.4,31.2,119.9,31.3z M122.1,23c-0.6,0-1-0.5-0.9-1.1c0-0.6,0.5-1,1.1-0.9
			c0.5,0,0.9,0.5,0.9,1C123.2,22.5,122.7,23,122.1,23C122.1,23,122.1,23,122.1,23L122.1,23z"/>
		<path class="st0" d="M128.3,31.4c-1.5,0-1.9-0.7-1.9-1.9v-4.6h-1.1v-0.5h1.1v-1.5l1.8-0.2v1.6h1.7v0.5h-1.7v4.9c0,0.5,0.1,1,0.8,1
			c0.4,0,0.7-0.2,1-0.4l0.3,0.5C129.7,31.2,129,31.4,128.3,31.4z"/>
		<path class="st0" d="M137.1,31.3c-0.6,0-1.2-0.1-1.2-0.7c-0.7,0.6-1.5,0.9-2.4,0.9c-1.5,0-2.3-0.7-2.3-2.1c0-2.4,2.9-2.2,4.7-2.4
			v-1.1c0-0.8-0.4-1.2-1.3-1.2c-0.9,0-1.3,0.5-1.3,1.3c0,0.4-0.3,0.5-0.7,0.5c-0.5,0-0.9,0-0.9-0.6c0-1.4,1.6-1.6,2.8-1.6
			c1.9,0,3.2,0.3,3.2,2.2v3.3c0,1,0.1,1.1,1.2,1.1v0.5C138.3,31.3,137.7,31.3,137.1,31.3z M135.9,27.5c-1.5,0.1-2.7,0.2-2.7,1.9
			c0,0.7,0.2,1.4,1.1,1.4c1.3,0,1.6-1,1.6-2V27.5z"/>
		<path class="st0" d="M139.7,31.3v-0.5c0.4,0,1.3,0,1.3-0.5v-8.6c0-0.5-0.9-0.6-1.3-0.6v-0.4c1,0,2.1,0,3.1,0v9.6
			c0,0.5,0.9,0.5,1.3,0.5v0.5C142.6,31.2,141.1,31.2,139.7,31.3z"/>
		<path class="st0" d="M158,31.3v-0.5c0.4,0,1.6,0,1.6-0.5v-7.8l-4.3,8.9H155l-4.2-8.9v7.8c0,0.5,1.2,0.5,1.6,0.5v0.5
			c-1.2,0-2.5,0-3.8,0v-0.5c0.4,0,1.5,0,1.5-0.5v-8.2c0-0.5-1.1-0.5-1.5-0.5v-0.5c1.2,0.1,2.4,0.1,3.6,0l3.7,7.7l3.7-7.7
			c1.2,0.1,2.3,0.1,3.5,0v0.5c-0.4,0-1.5,0-1.5,0.5v8.2c0,0.5,1.1,0.5,1.5,0.5v0.5C161.6,31.2,159.6,31.2,158,31.3z"/>
		<path class="st0" d="M169.9,31.3c-0.6,0-1.2-0.1-1.2-0.7c-0.6,0.6-1.5,0.9-2.4,0.9c-1.5,0-2.3-0.7-2.3-2.1c0-2.4,2.9-2.2,4.7-2.4
			v-1.1c0-0.8-0.4-1.2-1.3-1.2c-0.9,0-1.3,0.5-1.3,1.3c0,0.4-0.3,0.5-0.7,0.5c-0.5,0-0.9,0-0.9-0.6c0-1.4,1.6-1.6,2.8-1.6
			c1.9,0,3.2,0.3,3.2,2.2v3.3c0,1,0.1,1.1,1.2,1.1v0.5C171.1,31.3,170.5,31.3,169.9,31.3z M168.7,27.5c-1.5,0.1-2.7,0.2-2.7,1.9
			c0,0.7,0.2,1.4,1.1,1.4c1.3,0,1.6-1,1.6-2V27.5z"/>
		<path class="st0" d="M177.9,26.4c-1.4,0-0.3-1.5-1.2-1.5c-1,0-1.3,1.8-1.3,2.4v2.9c0,0.5,0.9,0.5,1.3,0.5v0.5c-1.5,0-3,0-4.4,0
			v-0.5c0.4,0,1.3,0,1.3-0.5v-4.9c0-0.5-0.9-0.6-1.3-0.6v-0.4c1,0,2.1,0,3.1,0v1.1l0,0c0.4-0.7,1.1-1.2,1.9-1.2
			c0.7-0.1,1.4,0.4,1.5,1.1c0,0.1,0,0.1,0,0.2C178.8,26.1,178.6,26.4,177.9,26.4z"/>
		<path class="st0" d="M184.5,31.3v-0.5c0.1,0,0.6,0,0.5-0.2c0-0.2-0.4-0.5-0.5-0.7c-0.5-0.5-0.9-1.1-1.3-1.6L183,28l-0.6,0.6v1.8
			c0,0.6,0.8,0.5,1.2,0.5v0.5c-1.4,0-2.9,0-4.3,0v-0.5c0.4,0,1.2-0.1,1.2-0.5v-8.6c0-0.5-0.8-0.6-1.2-0.6v-0.4c1,0,2.1,0,3.1,0v7.2
			c0.9-0.9,1.8-1.9,2.6-3c0-0.1-0.6-0.1-0.7-0.1v-0.4h3.1v0.4h-0.3c-0.5,0-0.9,0-1.3,0.2c-0.6,0.6-1.2,1.2-1.7,1.8l2.9,3.5
			c0.3,0.4,0.8,0.6,1.3,0.6v0.4C187.1,31.2,185.8,31.3,184.5,31.3z"/>
		<path class="st0" d="M190.7,27.7V28c0,1.3,0.1,2.9,2,2.9c1.1,0.1,2.1-0.7,2.3-1.8c0,0,0,0,0-0.1h0.6c-0.4,1.8-1.3,2.4-3.2,2.4
			c-2.6,0-3.7-1.5-3.7-3.7c0-2.2,1.3-3.5,3.7-3.5c2.4,0,3.4,1.3,3.4,3.3v0.1H190.7z M193.8,26.7c0-1-0.2-2-1.5-2
			c-1.5,0-1.6,1.5-1.6,2.5h3.1V26.7z"/>
		<path class="st0" d="M199.8,31.4c-1.5,0-1.9-0.7-1.9-1.9v-4.6h-1.1v-0.5h1.1v-1.5l1.8-0.2v1.6h1.7v0.5h-1.7v4.9c0,0.5,0.1,1,0.8,1
			c0.4,0,0.7-0.2,1-0.4l0.3,0.5C201.3,31.2,200.6,31.4,199.8,31.4z"/>
		<path class="st0" d="M205.4,31.4c-0.9,0-1.8-0.1-2.6-0.4v-2.2h0.7c0,1.1,0.5,2.1,1.9,2.1c0.8,0,1.7-0.3,1.7-1.2
			c0-1.7-4.2-0.9-4.2-3.4c0-1.6,1.3-2.2,2.9-2.2c0.8,0,1.5,0.1,2.3,0.4v1.8h-0.6c-0.1-1-0.5-1.7-1.7-1.7c-0.8,0-1.3,0.3-1.3,1
			c0,1.7,4.2,0.7,4.2,3.5C208.6,30.8,206.9,31.4,205.4,31.4z"/>
		<path class="st0" d="M211.2,24.3c-0.9,0-1.7,0.8-1.7,1.7c0,0.9,0.8,1.7,1.7,1.7c0.9,0,1.7-0.8,1.7-1.7
			C212.9,25,212.1,24.3,211.2,24.3L211.2,24.3z M211.2,27.5c-0.8,0-1.5-0.6-1.5-1.4s0.6-1.5,1.4-1.5s1.5,0.6,1.5,1.4c0,0,0,0,0,0
			C212.7,26.8,212,27.4,211.2,27.5C211.2,27.5,211.2,27.5,211.2,27.5"/>
		<path class="st0" d="M212,25.6c0-0.4-0.2-0.6-0.6-0.6h-0.8v2h0.2v-0.9h0.4l0.6,0.9h0.3l-0.6-0.9C211.8,26.2,212,25.9,212,25.6
			L212,25.6z M210.8,25.9v-0.7h0.4c0.4,0,0.5,0.1,0.5,0.4c0,0.2-0.1,0.3-0.5,0.3L210.8,25.9"/>
	</g>
</g>
</svg>
